<svg id="Слой_1" data-name="Слой 1" xmlns="http://www.w3.org/2000/svg" viewBox="0 0 391.5 391.5"><defs><style>.cls-1{fill:#c81617;}</style></defs><path class="cls-1" d="M475.53,304.25h49.32a11.38,11.38,0,0,0,1.26.38c5.18,1,10.41,1.76,15.54,3a197.67,197.67,0,0,1,86.19,44.31c32.42,28.26,54.36,63.13,65,104.93,1.06,4.17,1.94,8.39,2.9,12.58v61.94c-.43,1.9-.89,3.8-1.3,5.71-8.23,38.57-26.4,71.84-53.88,100-27,27.6-59.11,46.39-96.6,55.85-4.18,1.05-8.41,1.9-12.62,2.85H469.8a9.39,9.39,0,0,0-1.23-.42,192.43,192.43,0,0,1-35.72-10.11,203.72,203.72,0,0,1-75.59-51.42c-25.74-27.61-42.95-59.75-50.74-96.79-.83-3.91-1.52-7.85-2.27-11.78V475.91a5,5,0,0,0,.37-1,178.13,178.13,0,0,1,7.93-33.18c17.14-49.4,48.63-87,93.71-113.26A189.12,189.12,0,0,1,466,306.11C469.21,305.5,472.37,304.87,475.53,304.25ZM503.21,456.5l2.05,2.47q41.41,50.08,82.84,100.14c7.29,8.8,17.29,10.17,26.94,4.06s16.69-19.9,5.67-33c-22.26-26.56-44-53.58-65.93-80.39-11.18-13.65-22.89-26.9-33.52-41-9.36-12.37-29.24-12.55-37.36.41a16.92,16.92,0,0,1-1.3,1.66Q450,451,417.39,491.07c-11.14,13.77-22.06,27.72-33.05,41.6a18.1,18.1,0,0,0-4.16,14.24c1,7.05,4.78,12.39,10.49,16.4,8.81,6.19,19.91,5.79,27.28-3.38,3.12-3.87,6.57-7.47,9.7-11.32q29-35.55,57.9-71.16C491.26,470.45,497.19,463.62,503.21,456.5Z" transform="translate(-304.25 -304.25)"/></svg>